HIERARCHY
ROOT root
{
	OFFSET	0	13.1	24.9
	CHANNELS 6  Xposition Yposition Zposition Xrotation Yrotation Zrotation
	JOINT spine_1
	{
		OFFSET	0	9.99999	0
		CHANNELS 3  Xrotation Yrotation Zrotation
		JOINT spine_2
		{
			OFFSET	0	112	-10
			CHANNELS 3  Xrotation Yrotation Zrotation
			JOINT spine_3
			{
				OFFSET	0	206.5	19.3
				CHANNELS 3  Xrotation Yrotation Zrotation
				JOINT spine_4
				{
					OFFSET	0	110.4	14.6
					CHANNELS 3  Xrotation Yrotation Zrotation
					JOINT neck_1
					{
						OFFSET	0	71.8	-50.3
						CHANNELS 3  Xrotation Yrotation Zrotation
						JOINT neck_2
						{
							OFFSET	0	86.2	-25.8
							CHANNELS 3  Xrotation Yrotation Zrotation
							JOINT head_ee
							{
								OFFSET	0	179.8	-8.7
								CHANNELS 3  Xrotation Yrotation Zrotation
								End Site
								{
									OFFSET	1	0	0
								}
							}
						}
					}
					JOINT left_clavicle
					{
						OFFSET	-43.2	22.4	-70.8
						CHANNELS 3  Xrotation Yrotation Zrotation
						JOINT left_shoulder
						{
							OFFSET	-93.9	-5.79999	48.7
							CHANNELS 3  Xrotation Yrotation Zrotation
							JOINT left_elbow
							{
								OFFSET	-291.4	-30.8	15.2
								CHANNELS 3  Xrotation Yrotation Zrotation
								JOINT left_lowarm_twist
								{
									OFFSET	-110.7	-3.89999	13.6
									CHANNELS 3  Xrotation Yrotation Zrotation
									JOINT left_hand
									{
										OFFSET	-110.7	-3.89999	13.6
										CHANNELS 3  Xrotation Yrotation Zrotation
										JOINT left_ee
										{
											OFFSET	-80.8	-5.10001	12.1
											CHANNELS 3  Xrotation Yrotation Zrotation
											End Site
											{
												OFFSET	1	0	0
											}
										}
									}
								}
							}
						}
					}
					JOINT right_clavicle
					{
						OFFSET	43.2	22.4	-70.8
						CHANNELS 3  Xrotation Yrotation Zrotation
						JOINT right_shoulder
						{
							OFFSET	93.9	-5.79999	48.7
							CHANNELS 3  Xrotation Yrotation Zrotation
							JOINT right_elbow
							{
								OFFSET	291.4	-30.8	15.2
								CHANNELS 3  Xrotation Yrotation Zrotation
								JOINT right_lowarm_twist
								{
									OFFSET	110.7	-3.89999	13.6
									CHANNELS 3  Xrotation Yrotation Zrotation
									JOINT right_hand
									{
										OFFSET	110.7	-3.89999	13.6
										CHANNELS 3  Xrotation Yrotation Zrotation
										JOINT right_ee
										{
											OFFSET	80.8	-5.10001	12.1
											CHANNELS 3  Xrotation Yrotation Zrotation
											End Site
											{
												OFFSET	1	0	0
											}
										}
									}
								}
							}
						}
					}
				}
			}
		}
	}
	JOINT left_hip
	{
		OFFSET	-82.8	-127.5	0.300001
		CHANNELS 3  Xrotation Yrotation Zrotation
		JOINT left_knee
		{
			OFFSET	-28.2	-396.7	2.2
			CHANNELS 3  Xrotation Yrotation Zrotation
			JOINT left_ankle
			{
				OFFSET	-11.7	-411.3	35.4
				CHANNELS 3  Xrotation Yrotation Zrotation
				JOINT left_toes
				{
					OFFSET	0	-60	-88.6
					CHANNELS 3  Xrotation Yrotation Zrotation
					JOINT left_foot_ee
					{
						OFFSET	-22.5	-16.5	-42.2
						CHANNELS 3  Xrotation Yrotation Zrotation
						End Site
						{
							OFFSET	1	0	0
						}
					}
				}
			}
		}
	}
	JOINT right_hip
	{
		OFFSET	82.8	-127.5	0.300001
		CHANNELS 3  Xrotation Yrotation Zrotation
		JOINT right_knee
		{
			OFFSET	28.2	-396.7	2.2
			CHANNELS 3  Xrotation Yrotation Zrotation
			JOINT right_ankle
			{
				OFFSET	11.7	-411.3	35.4
				CHANNELS 3  Xrotation Yrotation Zrotation
				JOINT right_toes
				{
					OFFSET	0	-60	-88.6
					CHANNELS 3  Xrotation Yrotation Zrotation
					JOINT right_foot_ee
					{
						OFFSET	22.5	-16.5	-42.2
						CHANNELS 3  Xrotation Yrotation Zrotation
						End Site
						{
							OFFSET	1	0	0
						}
					}
				}
			}
		}
	}
}
MOTION
Frames: 6
Frame Time: 0.02
1552.58 755.128 -1511.63 15.4577 64.6364 -14.041 -2.80081 0.109518 2.26377 -2.79796 -0.0347158 2.26615 -2.79618 -0.617656 2.18067 -2.80272 -0.2656 2.25081 -1.89136 15.4647 -2.64493 -1.30062 30.0405 -0.892891 -0.0 0.0 -0.0 -1.17438 13.3237 -0.359907 7.02268 -9.96939 57.4221 2.03598 -45.2391 0.848387 -12.6977 -0.616272 1.49868 1.54118 -12.3725 5.12996 -0.0 0.0 -0.0 10.7883 18.5119 -21.2752 -23.8645 29.9482 -57.8557 0.86229 23.1297 -0.176454 -53.6595 4.50642 -4.86048 0.477883 1.52698 -2.5589 0.0 0.0 0.0 -6.65 -0.0660215 2.34407 -7.83889 0.242496 1.17766 22.3132 2.06416 -3.02407 -12.3362 0.0 0.0 -0.0 0.0 -0.0 18.0992 24.234 -9.15405 -56.7043 1.85482 -8.15244 -3.04009 -14.3579 -0.450233 -30.8539 0.0 0.0 0.0 0.0 0.0 
1540.37 748.132 -1509.5 12.2854 67.0627 -11.7886 -2.19224 -0.0168 2.14842 -2.18968 -0.153443 2.143 -2.19319 -0.679248 2.03833 -2.19882 -0.348884 2.11998 -2.24458 15.7932 -1.61253 -1.72772 29.8868 0.340464 -0.0 0.0 -0.0 -0.994868 12.1765 -0.225654 8.79587 -11.324 57.1796 2.21665 -47.6697 0.979366 -12.7228 -0.617818 1.5015 1.40072 -11.5861 4.52432 -0.0 0.0 -0.0 10.843 18.1893 -21.4184 -24.9647 29.1679 -58.7183 0.648138 17.8003 -0.101499 -53.9248 4.53835 -4.87226 0.956823 1.60503 -5.74606 0.0 0.0 0.0 -7.57406 0.00476918 2.98415 -2.79535 0.104959 0.416113 22.5258 5.19614 -3.04017 -12.6892 0.0 0.0 -0.0 0.0 -0.0 19.186 22.418 -9.32865 -46.8278 0.957253 -6.92629 -5.48043 -18.0415 -0.822407 -34.1165 0.0 0.0 0.0 0.0 0.0 
1519.34 748.298 -1509.98 10.8734 69.0033 -10.8463 -1.80131 -0.172581 2.00623 -1.79912 -0.299867 1.99119 -1.80807 -0.771073 1.86021 -1.81259 -0.467672 1.95859 -3.22758 15.4923 -1.40689 -2.83309 29.3288 0.77479 -0.0 0.0 -0.0 -0.87565 11.2507 -0.153497 10.0514 -12.3936 57.0373 2.35447 -49.3835 1.08264 -12.774 -0.620966 1.50724 1.35434 -11.0272 4.45377 -0.0 0.0 -0.0 10.8296 17.9646 -21.4014 -26.0984 28.4726 -59.0604 0.504044 14.0197 -0.061977 -54.1109 4.56078 -4.88045 1.43879 1.60697 -9.00463 0.0 0.0 0.0 -8.44667 0.0620218 3.20985 -0.780749 0.03136 0.11571 22.7216 8.24043 -3.06318 -12.6671 0.0 0.0 -0.0 0.0 -0.0 19.8512 21.1 -8.4649 -39.9939 0.46638 -5.99744 -7.22746 -22.0242 -1.10305 -36.4012 0.0 0.0 0.0 0.0 0.0 
1503.53 751.367 -1506.7 9.12106 70.0403 -9.11619 -1.71255 -0.286764 1.86856 -1.7107 -0.405064 1.84654 -1.72273 -0.835778 1.6957 -1.72631 -0.557532 1.80638 -4.77462 14.6794 -1.54955 -4.55065 28.1537 0.898612 -0.0 0.0 -0.0 -0.867611 10.5558 -0.235357 11.237 -13.3399 56.7138 2.45679 -50.5829 1.16101 -12.7977 -0.622424 1.5099 1.32283 -10.3682 4.52609 -0.0 0.0 -0.0 10.7486 17.1874 -21.2625 -28.3185 27.7116 -59.7626 0.431092 12.0547 -0.0455177 -54.9899 4.66708 -4.9181 1.91132 1.75809 -12.1685 0.0 0.0 0.0 -9.36138 0.59467 3.50368 -0.075843 0.00311559 0.0112218 21.0438 11.6502 -2.86854 -12.9911 0.0 0.0 -0.0 0.0 -0.0 20.2336 19.4799 -7.48272 -35.2429 0.192184 -5.32095 -8.25008 -24.8036 -1.27727 -37.8073 0.0 0.0 0.0 0.0 0.0 
1489.17 756.882 -1508.17 11.7991 71.5052 -11.6087 -1.67521 -0.35991 1.78139 -1.67357 -0.472518 1.75489 -1.68728 -0.87832 1.5911 -1.69028 -0.616053 1.7098 -5.85199 14.1193 -1.66192 -5.73211 27.3273 0.953897 -0.0 0.0 -0.0 -0.86139 10.0679 -0.291664 11.8013 -14.1417 56.5885 2.53154 -51.4222 1.2191 -12.8423 -0.62518 1.5149 1.30782 -9.88746 4.63208 -0.0 0.0 -0.0 10.7026 16.6559 -21.1866 -29.8208 27.2066 -60.2324 0.381832 10.7111 -0.0357951 -55.5987 4.74101 -4.94321 2.25378 1.90774 -14.4701 0.0 0.0 0.0 -10.2981 0.945535 3.92697 0.25431 -0.0105553 -0.0375985 19.7022 14.0465 -2.7133 -13.2706 0.0 0.0 -0.0 0.0 -0.0 20.5641 18.3393 -6.83982 -31.9056 0.0336274 -4.83354 -8.96631 -26.7476 -1.40413 -38.7899 0.0 0.0 0.0 0.0 0.0 
1473.31 753.469 -1507.09 13.6153 71.8355 -13.8691 -1.65445 -0.29106 1.73633 -1.65286 -0.400941 1.7143 -1.66404 -0.798447 1.56913 -1.66706 -0.540649 1.6755 -4.64488 13.0371 -3.49624 -4.38443 26.5661 -1.4146 -0.0 0.0 -0.0 -0.644333 7.0535 -0.315877 12.5917 -14.2595 56.3456 2.58793 -52.0356 1.26338 -12.6525 -0.613497 1.49361 1.16713 -7.60839 4.65528 -0.0 0.0 -0.0 10.5796 16.4762 -20.9192 -30.9071 26.8727 -60.6463 0.347974 9.78051 -0.0297723 -56.0697 4.7984 -4.96211 2.88655 4.05722 -18.0134 0.0 0.0 0.0 -11.9528 1.22336 4.5248 -0.473461 0.0192059 0.0701193 18.3631 15.0825 -2.54941 -13.248 0.0 0.0 -0.0 0.0 -0.0 22.6172 17.5467 -7.01381 -27.3255 -0.137179 -4.15158 -10.1886 -25.0054 -1.58311 -40.2511 0.0 0.0 0.0 0.0 0.0 
